<svg xmlns="http://www.w3.org/2000/svg" xmlns:xlink="http://www.w3.org/1999/xlink" width="60" zoomAndPan="magnify" viewBox="0 0 45 30.000001" height="40" preserveAspectRatio="xMidYMid meet" version="1.0"><defs><g/></defs><g fill="#ff0000" fill-opacity="1"><g transform="translate(2.669838, 13.66434)"><g><path d="M 5.53125 -1.542969 L 6.441406 -2.449219 L 6.441406 -5.441406 L 5.53125 -6.347656 L 0.046875 -6.347656 L 0.046875 -4.898438 L 4.988281 -4.898438 L 4.988281 -2.992188 L 2.175781 -2.992188 L 2.175781 -4.445312 L 0.726562 -4.445312 L 0.726562 0 L 2.175781 0 L 2.175781 -1.542969 Z M 5.53125 -1.542969 "/></g></g></g><g fill="#ff0000" fill-opacity="1"><g transform="translate(10.352657, 13.66434)"><g><path d="M 5.53125 -1.542969 L 6.441406 -2.449219 L 6.441406 -5.441406 L 5.53125 -6.347656 L 0.046875 -6.347656 L 0.046875 -4.898438 L 4.988281 -4.898438 L 4.988281 -2.992188 L 2.175781 -2.992188 L 2.175781 -4.445312 L 0.726562 -4.445312 L 0.726562 0 L 2.175781 0 L 2.175781 -1.542969 L 3.691406 -1.542969 C 4.144531 -1.023438 4.589844 -0.507812 5.050781 0 L 6.894531 0 C 6.429688 -0.507812 5.988281 -1.023438 5.53125 -1.542969 Z M 5.53125 -1.542969 "/></g></g></g><g fill="#ff0000" fill-opacity="1"><g transform="translate(18.307595, 13.66434)"><g><path d="M 6.621094 0 L 6.621094 -1.453125 L 1.90625 -1.453125 L 1.90625 -4.898438 L 5.398438 -4.898438 L 5.398438 -3.808594 L 2.359375 -3.808594 L 2.359375 -2.359375 L 5.941406 -2.359375 L 6.847656 -3.265625 L 6.847656 -5.441406 L 5.941406 -6.347656 L 1.359375 -6.347656 L 0.453125 -5.441406 L 0.453125 -0.90625 L 1.359375 0 Z M 6.621094 0 "/></g></g></g><g fill="#ff0000" fill-opacity="1"><g transform="translate(26.580003, 13.66434)"><g><path d="M 5.578125 0 L 6.484375 -0.90625 L 6.484375 -2.992188 L 5.578125 -3.898438 L 1.90625 -3.898438 L 1.90625 -4.898438 L 6.484375 -4.898438 L 6.484375 -6.347656 L 1.359375 -6.347656 L 0.453125 -5.441406 L 0.453125 -3.355469 L 1.359375 -2.449219 L 5.035156 -2.449219 L 5.035156 -1.453125 L 0.453125 -1.453125 L 0.453125 0 Z M 5.578125 0 "/></g></g></g><g fill="#ff0000" fill-opacity="1"><g transform="translate(34.489588, 13.66434)"><g><path d="M 5.578125 0 L 6.484375 -0.90625 L 6.484375 -2.992188 L 5.578125 -3.898438 L 1.90625 -3.898438 L 1.90625 -4.898438 L 6.484375 -4.898438 L 6.484375 -6.347656 L 1.359375 -6.347656 L 0.453125 -5.441406 L 0.453125 -3.355469 L 1.359375 -2.449219 L 5.035156 -2.449219 L 5.035156 -1.453125 L 0.453125 -1.453125 L 0.453125 0 Z M 5.578125 0 "/></g></g></g><g fill="#00ffff" fill-opacity="1"><g transform="translate(3.570139, 13.553798)"><g><path d="M 5.53125 -1.542969 L 6.441406 -2.449219 L 6.441406 -5.441406 L 5.53125 -6.347656 L 0.046875 -6.347656 L 0.046875 -4.898438 L 4.988281 -4.898438 L 4.988281 -2.992188 L 2.175781 -2.992188 L 2.175781 -4.445312 L 0.726562 -4.445312 L 0.726562 0 L 2.175781 0 L 2.175781 -1.542969 Z M 5.53125 -1.542969 "/></g></g></g><g fill="#00ffff" fill-opacity="1"><g transform="translate(11.252958, 13.553798)"><g><path d="M 5.53125 -1.542969 L 6.441406 -2.449219 L 6.441406 -5.441406 L 5.53125 -6.347656 L 0.046875 -6.347656 L 0.046875 -4.898438 L 4.988281 -4.898438 L 4.988281 -2.992188 L 2.175781 -2.992188 L 2.175781 -4.445312 L 0.726562 -4.445312 L 0.726562 0 L 2.175781 0 L 2.175781 -1.542969 L 3.691406 -1.542969 C 4.144531 -1.023438 4.589844 -0.507812 5.050781 0 L 6.894531 0 C 6.429688 -0.507812 5.988281 -1.023438 5.53125 -1.542969 Z M 5.53125 -1.542969 "/></g></g></g><g fill="#00ffff" fill-opacity="1"><g transform="translate(19.207896, 13.553798)"><g><path d="M 6.621094 0 L 6.621094 -1.453125 L 1.90625 -1.453125 L 1.90625 -4.898438 L 5.398438 -4.898438 L 5.398438 -3.808594 L 2.359375 -3.808594 L 2.359375 -2.359375 L 5.941406 -2.359375 L 6.847656 -3.265625 L 6.847656 -5.441406 L 5.941406 -6.347656 L 1.359375 -6.347656 L 0.453125 -5.441406 L 0.453125 -0.90625 L 1.359375 0 Z M 6.621094 0 "/></g></g></g><g fill="#00ffff" fill-opacity="1"><g transform="translate(27.480304, 13.553798)"><g><path d="M 5.578125 0 L 6.484375 -0.90625 L 6.484375 -2.992188 L 5.578125 -3.898438 L 1.90625 -3.898438 L 1.90625 -4.898438 L 6.484375 -4.898438 L 6.484375 -6.347656 L 1.359375 -6.347656 L 0.453125 -5.441406 L 0.453125 -3.355469 L 1.359375 -2.449219 L 5.035156 -2.449219 L 5.035156 -1.453125 L 0.453125 -1.453125 L 0.453125 0 Z M 5.578125 0 "/></g></g></g><g fill="#00ffff" fill-opacity="1"><g transform="translate(35.389889, 13.553798)"><g><path d="M 5.578125 0 L 6.484375 -0.90625 L 6.484375 -2.992188 L 5.578125 -3.898438 L 1.90625 -3.898438 L 1.90625 -4.898438 L 6.484375 -4.898438 L 6.484375 -6.347656 L 1.359375 -6.347656 L 0.453125 -5.441406 L 0.453125 -3.355469 L 1.359375 -2.449219 L 5.035156 -2.449219 L 5.035156 -1.453125 L 0.453125 -1.453125 L 0.453125 0 Z M 5.578125 0 "/></g></g></g><g fill="#88ff55" fill-opacity="1"><g transform="translate(3.119989, 13.609069)"><g><path d="M 5.53125 -1.542969 L 6.441406 -2.449219 L 6.441406 -5.441406 L 5.53125 -6.347656 L 0.046875 -6.347656 L 0.046875 -4.898438 L 4.988281 -4.898438 L 4.988281 -2.992188 L 2.175781 -2.992188 L 2.175781 -4.445312 L 0.726562 -4.445312 L 0.726562 0 L 2.175781 0 L 2.175781 -1.542969 Z M 5.53125 -1.542969 "/></g></g></g><g fill="#88ff55" fill-opacity="1"><g transform="translate(10.802807, 13.609069)"><g><path d="M 5.53125 -1.542969 L 6.441406 -2.449219 L 6.441406 -5.441406 L 5.53125 -6.347656 L 0.046875 -6.347656 L 0.046875 -4.898438 L 4.988281 -4.898438 L 4.988281 -2.992188 L 2.175781 -2.992188 L 2.175781 -4.445312 L 0.726562 -4.445312 L 0.726562 0 L 2.175781 0 L 2.175781 -1.542969 L 3.691406 -1.542969 C 4.144531 -1.023438 4.589844 -0.507812 5.050781 0 L 6.894531 0 C 6.429688 -0.507812 5.988281 -1.023438 5.53125 -1.542969 Z M 5.53125 -1.542969 "/></g></g></g><g fill="#88ff55" fill-opacity="1"><g transform="translate(18.757746, 13.609069)"><g><path d="M 6.621094 0 L 6.621094 -1.453125 L 1.90625 -1.453125 L 1.90625 -4.898438 L 5.398438 -4.898438 L 5.398438 -3.808594 L 2.359375 -3.808594 L 2.359375 -2.359375 L 5.941406 -2.359375 L 6.847656 -3.265625 L 6.847656 -5.441406 L 5.941406 -6.347656 L 1.359375 -6.347656 L 0.453125 -5.441406 L 0.453125 -0.90625 L 1.359375 0 Z M 6.621094 0 "/></g></g></g><g fill="#88ff55" fill-opacity="1"><g transform="translate(27.030153, 13.609069)"><g><path d="M 5.578125 0 L 6.484375 -0.90625 L 6.484375 -2.992188 L 5.578125 -3.898438 L 1.90625 -3.898438 L 1.90625 -4.898438 L 6.484375 -4.898438 L 6.484375 -6.347656 L 1.359375 -6.347656 L 0.453125 -5.441406 L 0.453125 -3.355469 L 1.359375 -2.449219 L 5.035156 -2.449219 L 5.035156 -1.453125 L 0.453125 -1.453125 L 0.453125 0 Z M 5.578125 0 "/></g></g></g><g fill="#88ff55" fill-opacity="1"><g transform="translate(34.939738, 13.609069)"><g><path d="M 5.578125 0 L 6.484375 -0.90625 L 6.484375 -2.992188 L 5.578125 -3.898438 L 1.90625 -3.898438 L 1.90625 -4.898438 L 6.484375 -4.898438 L 6.484375 -6.347656 L 1.359375 -6.347656 L 0.453125 -5.441406 L 0.453125 -3.355469 L 1.359375 -2.449219 L 5.035156 -2.449219 L 5.035156 -1.453125 L 0.453125 -1.453125 L 0.453125 0 Z M 5.578125 0 "/></g></g></g><g fill="#ff0000" fill-opacity="1"><g transform="translate(2.947095, 21.827898)"><g><path d="M 5.578125 0 L 6.484375 -0.90625 L 6.484375 -2.992188 L 5.578125 -3.898438 L 1.90625 -3.898438 L 1.90625 -4.898438 L 6.484375 -4.898438 L 6.484375 -6.347656 L 1.359375 -6.347656 L 0.453125 -5.441406 L 0.453125 -3.355469 L 1.359375 -2.449219 L 5.035156 -2.449219 L 5.035156 -1.453125 L 0.453125 -1.453125 L 0.453125 0 Z M 5.578125 0 "/></g></g></g><g fill="#ff0000" fill-opacity="1"><g transform="translate(10.856679, 21.827898)"><g><path d="M 4 0 L 4 -4.898438 L 6.503906 -4.898438 L 6.503906 -6.347656 L 0.046875 -6.347656 L 0.046875 -4.898438 L 2.550781 -4.898438 L 2.550781 0 Z M 4 0 "/></g></g></g><g fill="#ff0000" fill-opacity="1"><g transform="translate(18.376226, 21.827898)"><g><path d="M 6.847656 0 L 6.847656 -5.441406 L 5.941406 -6.347656 L 0.679688 -6.347656 L 0.679688 -4.898438 L 5.398438 -4.898438 L 5.398438 -3.898438 L 1.359375 -3.898438 L 0.453125 -2.992188 L 0.453125 -0.90625 L 1.359375 0 L 4.945312 0 L 4.945312 -1.453125 L 1.90625 -1.453125 L 1.90625 -2.449219 L 5.398438 -2.449219 L 5.398438 -0.90625 L 6.304688 0 Z M 6.847656 0 "/></g></g></g><g fill="#ff0000" fill-opacity="1"><g transform="translate(26.648635, 21.827898)"><g><path d="M 5.53125 -1.542969 L 6.441406 -2.449219 L 6.441406 -5.441406 L 5.53125 -6.347656 L 0.046875 -6.347656 L 0.046875 -4.898438 L 4.988281 -4.898438 L 4.988281 -2.992188 L 2.175781 -2.992188 L 2.175781 -4.445312 L 0.726562 -4.445312 L 0.726562 0 L 2.175781 0 L 2.175781 -1.542969 L 3.691406 -1.542969 C 4.144531 -1.023438 4.589844 -0.507812 5.050781 0 L 6.894531 0 C 6.429688 -0.507812 5.988281 -1.023438 5.53125 -1.542969 Z M 5.53125 -1.542969 "/></g></g></g><g fill="#ff0000" fill-opacity="1"><g transform="translate(34.603573, 21.827898)"><g><path d="M 4 0 L 4 -4.898438 L 6.503906 -4.898438 L 6.503906 -6.347656 L 0.046875 -6.347656 L 0.046875 -4.898438 L 2.550781 -4.898438 L 2.550781 0 Z M 4 0 "/></g></g></g><g fill="#00ffff" fill-opacity="1"><g transform="translate(3.847395, 21.717355)"><g><path d="M 5.578125 0 L 6.484375 -0.90625 L 6.484375 -2.992188 L 5.578125 -3.898438 L 1.90625 -3.898438 L 1.90625 -4.898438 L 6.484375 -4.898438 L 6.484375 -6.347656 L 1.359375 -6.347656 L 0.453125 -5.441406 L 0.453125 -3.355469 L 1.359375 -2.449219 L 5.035156 -2.449219 L 5.035156 -1.453125 L 0.453125 -1.453125 L 0.453125 0 Z M 5.578125 0 "/></g></g></g><g fill="#00ffff" fill-opacity="1"><g transform="translate(11.756979, 21.717355)"><g><path d="M 4 0 L 4 -4.898438 L 6.503906 -4.898438 L 6.503906 -6.347656 L 0.046875 -6.347656 L 0.046875 -4.898438 L 2.550781 -4.898438 L 2.550781 0 Z M 4 0 "/></g></g></g><g fill="#00ffff" fill-opacity="1"><g transform="translate(19.276527, 21.717355)"><g><path d="M 6.847656 0 L 6.847656 -5.441406 L 5.941406 -6.347656 L 0.679688 -6.347656 L 0.679688 -4.898438 L 5.398438 -4.898438 L 5.398438 -3.898438 L 1.359375 -3.898438 L 0.453125 -2.992188 L 0.453125 -0.90625 L 1.359375 0 L 4.945312 0 L 4.945312 -1.453125 L 1.90625 -1.453125 L 1.90625 -2.449219 L 5.398438 -2.449219 L 5.398438 -0.90625 L 6.304688 0 Z M 6.847656 0 "/></g></g></g><g fill="#00ffff" fill-opacity="1"><g transform="translate(27.548936, 21.717355)"><g><path d="M 5.53125 -1.542969 L 6.441406 -2.449219 L 6.441406 -5.441406 L 5.53125 -6.347656 L 0.046875 -6.347656 L 0.046875 -4.898438 L 4.988281 -4.898438 L 4.988281 -2.992188 L 2.175781 -2.992188 L 2.175781 -4.445312 L 0.726562 -4.445312 L 0.726562 0 L 2.175781 0 L 2.175781 -1.542969 L 3.691406 -1.542969 C 4.144531 -1.023438 4.589844 -0.507812 5.050781 0 L 6.894531 0 C 6.429688 -0.507812 5.988281 -1.023438 5.53125 -1.542969 Z M 5.53125 -1.542969 "/></g></g></g><g fill="#00ffff" fill-opacity="1"><g transform="translate(35.503873, 21.717355)"><g><path d="M 4 0 L 4 -4.898438 L 6.503906 -4.898438 L 6.503906 -6.347656 L 0.046875 -6.347656 L 0.046875 -4.898438 L 2.550781 -4.898438 L 2.550781 0 Z M 4 0 "/></g></g></g><g fill="#88ff55" fill-opacity="1"><g transform="translate(3.397245, 21.772627)"><g><path d="M 5.578125 0 L 6.484375 -0.90625 L 6.484375 -2.992188 L 5.578125 -3.898438 L 1.90625 -3.898438 L 1.90625 -4.898438 L 6.484375 -4.898438 L 6.484375 -6.347656 L 1.359375 -6.347656 L 0.453125 -5.441406 L 0.453125 -3.355469 L 1.359375 -2.449219 L 5.035156 -2.449219 L 5.035156 -1.453125 L 0.453125 -1.453125 L 0.453125 0 Z M 5.578125 0 "/></g></g></g><g fill="#88ff55" fill-opacity="1"><g transform="translate(11.306829, 21.772627)"><g><path d="M 4 0 L 4 -4.898438 L 6.503906 -4.898438 L 6.503906 -6.347656 L 0.046875 -6.347656 L 0.046875 -4.898438 L 2.550781 -4.898438 L 2.550781 0 Z M 4 0 "/></g></g></g><g fill="#88ff55" fill-opacity="1"><g transform="translate(18.826376, 21.772627)"><g><path d="M 6.847656 0 L 6.847656 -5.441406 L 5.941406 -6.347656 L 0.679688 -6.347656 L 0.679688 -4.898438 L 5.398438 -4.898438 L 5.398438 -3.898438 L 1.359375 -3.898438 L 0.453125 -2.992188 L 0.453125 -0.90625 L 1.359375 0 L 4.945312 0 L 4.945312 -1.453125 L 1.90625 -1.453125 L 1.90625 -2.449219 L 5.398438 -2.449219 L 5.398438 -0.90625 L 6.304688 0 Z M 6.847656 0 "/></g></g></g><g fill="#88ff55" fill-opacity="1"><g transform="translate(27.098786, 21.772627)"><g><path d="M 5.53125 -1.542969 L 6.441406 -2.449219 L 6.441406 -5.441406 L 5.53125 -6.347656 L 0.046875 -6.347656 L 0.046875 -4.898438 L 4.988281 -4.898438 L 4.988281 -2.992188 L 2.175781 -2.992188 L 2.175781 -4.445312 L 0.726562 -4.445312 L 0.726562 0 L 2.175781 0 L 2.175781 -1.542969 L 3.691406 -1.542969 C 4.144531 -1.023438 4.589844 -0.507812 5.050781 0 L 6.894531 0 C 6.429688 -0.507812 5.988281 -1.023438 5.53125 -1.542969 Z M 5.53125 -1.542969 "/></g></g></g><g fill="#88ff55" fill-opacity="1"><g transform="translate(35.053723, 21.772627)"><g><path d="M 4 0 L 4 -4.898438 L 6.503906 -4.898438 L 6.503906 -6.347656 L 0.046875 -6.347656 L 0.046875 -4.898438 L 2.550781 -4.898438 L 2.550781 0 Z M 4 0 "/></g></g></g></svg>