<svg xmlns="http://www.w3.org/2000/svg" xmlns:xlink="http://www.w3.org/1999/xlink" width="60" zoomAndPan="magnify" viewBox="0 0 45 30.000001" height="40" preserveAspectRatio="xMidYMid meet" version="1.0"><defs><clipPath id="e06a23d1dd"><path d="M 9.195312 0.929688 L 27.339844 0.929688 L 27.339844 27.785156 L 9.195312 27.785156 Z M 9.195312 0.929688 " clip-rule="nonzero"/></clipPath></defs><g clip-path="url(#e06a23d1dd)"><path fill="#ffffff" d="M 26.066406 1.550781 C 26.445312 1.550781 26.753906 1.859375 26.753906 2.238281 L 26.753906 23.382812 C 26.753906 25.464844 25.066406 27.160156 22.992188 27.160156 L 10.46875 27.160156 C 10.089844 27.160156 9.785156 26.851562 9.785156 26.472656 L 9.785156 2.238281 C 9.785156 1.859375 10.089844 1.550781 10.46875 1.550781 L 26.066406 1.550781 M 26.066406 0.960938 L 10.46875 0.960938 C 9.769531 0.960938 9.195312 1.535156 9.195312 2.238281 L 9.195312 26.472656 C 9.195312 27.175781 9.769531 27.75 10.46875 27.75 L 22.992188 27.75 C 25.382812 27.75 27.339844 25.785156 27.339844 23.382812 L 27.339844 2.238281 C 27.339844 1.535156 26.769531 0.960938 26.066406 0.960938 Z M 26.066406 0.960938 " fill-opacity="1" fill-rule="nonzero"/></g><path fill="#ffffff" d="M 13.703125 17.042969 C 14.863281 17.042969 15.804688 17.988281 15.804688 19.152344 C 15.804688 20.320312 14.863281 21.265625 13.703125 21.265625 C 12.542969 21.265625 11.597656 20.320312 11.597656 19.152344 C 11.597656 17.988281 12.542969 17.042969 13.703125 17.042969 M 13.703125 16.453125 C 12.214844 16.453125 11.011719 17.660156 11.011719 19.152344 C 11.011719 20.648438 12.214844 21.855469 13.703125 21.855469 C 15.1875 21.855469 16.394531 20.648438 16.394531 19.152344 C 16.394531 17.660156 15.1875 16.453125 13.703125 16.453125 Z M 13.703125 16.453125 " fill-opacity="1" fill-rule="nonzero"/><path fill="#ffffff" d="M 23.726562 4.101562 C 23.972656 4.101562 24.171875 4.304688 24.171875 4.554688 L 24.171875 12.980469 C 24.171875 13.230469 23.972656 13.433594 23.726562 13.433594 L 12.773438 13.433594 C 12.523438 13.433594 12.324219 13.230469 12.324219 12.980469 L 12.324219 4.554688 C 12.324219 4.304688 12.523438 4.101562 12.773438 4.101562 L 23.726562 4.101562 M 23.726562 3.511719 L 12.773438 3.511719 C 12.203125 3.511719 11.734375 3.980469 11.734375 4.554688 L 11.734375 12.980469 C 11.734375 13.554688 12.203125 14.023438 12.773438 14.023438 L 23.726562 14.023438 C 24.292969 14.023438 24.761719 13.554688 24.761719 12.980469 L 24.761719 4.554688 C 24.761719 3.980469 24.292969 3.511719 23.726562 3.511719 Z M 23.726562 3.511719 " fill-opacity="1" fill-rule="nonzero"/><path fill="#ffffff" d="M 15.257812 18.699219 L 12.203125 18.699219 C 12.117188 18.699219 12.050781 18.769531 12.050781 18.855469 L 12.050781 19.457031 C 12.050781 19.542969 12.117188 19.609375 12.203125 19.609375 L 15.257812 19.609375 C 15.34375 19.609375 15.414062 19.542969 15.414062 19.457031 L 15.414062 18.855469 C 15.414062 18.769531 15.34375 18.699219 15.257812 18.699219 Z M 15.257812 18.699219 " fill-opacity="1" fill-rule="nonzero"/><path fill="#ffffff" d="M 14.003906 17.488281 L 13.40625 17.488281 C 13.320312 17.488281 13.25 17.554688 13.25 17.640625 L 13.25 20.710938 C 13.25 20.796875 13.320312 20.867188 13.40625 20.867188 L 14.003906 20.867188 C 14.089844 20.867188 14.160156 20.796875 14.160156 20.710938 L 14.160156 17.640625 C 14.160156 17.554688 14.089844 17.488281 14.003906 17.488281 Z M 14.003906 17.488281 " fill-opacity="1" fill-rule="nonzero"/><path fill="#ffffff" d="M 23.59375 16.496094 C 23.972656 16.496094 24.316406 16.683594 24.523438 16.996094 L 24.605469 17.128906 C 24.765625 17.375 24.820312 17.667969 24.761719 17.960938 C 24.699219 18.25 24.53125 18.496094 24.285156 18.65625 L 21.90625 20.214844 C 21.730469 20.332031 21.523438 20.394531 21.3125 20.394531 C 20.933594 20.394531 20.589844 20.207031 20.386719 19.894531 L 20.300781 19.761719 C 19.96875 19.25 20.113281 18.566406 20.621094 18.234375 L 23 16.675781 C 23.175781 16.558594 23.382812 16.496094 23.59375 16.496094 M 23.59375 15.90625 C 23.28125 15.90625 22.960938 15.996094 22.675781 16.179688 L 20.296875 17.738281 C 19.519531 18.246094 19.300781 19.304688 19.804688 20.082031 L 19.890625 20.214844 C 20.214844 20.710938 20.757812 20.984375 21.308594 20.984375 C 21.625 20.984375 21.945312 20.894531 22.226562 20.707031 L 24.605469 19.152344 C 25.386719 18.640625 25.605469 17.585938 25.101562 16.804688 L 25.015625 16.671875 C 24.691406 16.175781 24.148438 15.90625 23.59375 15.90625 Z M 23.59375 15.90625 " fill-opacity="1" fill-rule="nonzero"/><path fill="#ffffff" d="M 17.007812 22.832031 C 16.949219 22.832031 16.894531 22.84375 16.839844 22.871094 L 15.351562 23.59375 C 15.160156 23.6875 15.078125 23.917969 15.171875 24.109375 L 15.304688 24.386719 C 15.367188 24.523438 15.507812 24.605469 15.652344 24.605469 C 15.707031 24.605469 15.765625 24.59375 15.816406 24.566406 L 17.308594 23.839844 C 17.496094 23.75 17.578125 23.515625 17.488281 23.324219 L 17.355469 23.050781 C 17.289062 22.914062 17.148438 22.832031 17.007812 22.832031 Z M 17.007812 22.832031 " fill-opacity="1" fill-rule="nonzero"/><path fill="#ffffff" d="M 19.707031 23.210938 C 19.652344 23.210938 19.59375 23.222656 19.542969 23.25 L 18.050781 23.976562 C 17.863281 24.066406 17.78125 24.300781 17.871094 24.492188 L 18.003906 24.765625 C 18.070312 24.90625 18.210938 24.984375 18.351562 24.984375 C 18.410156 24.984375 18.464844 24.972656 18.519531 24.945312 L 20.007812 24.222656 C 20.199219 24.128906 20.28125 23.898438 20.1875 23.707031 L 20.054688 23.429688 C 19.988281 23.292969 19.851562 23.210938 19.707031 23.210938 Z M 19.707031 23.210938 " fill-opacity="1" fill-rule="nonzero"/><path fill="#ffffff" d="M 22.289062 18.867188 C 22.289062 19.027344 22.230469 19.167969 22.117188 19.285156 C 22 19.398438 21.863281 19.457031 21.699219 19.457031 C 21.539062 19.457031 21.398438 19.398438 21.285156 19.285156 C 21.167969 19.167969 21.113281 19.027344 21.113281 18.867188 C 21.113281 18.703125 21.167969 18.5625 21.285156 18.449219 C 21.398438 18.332031 21.539062 18.277344 21.699219 18.277344 C 21.863281 18.277344 22 18.332031 22.117188 18.449219 C 22.230469 18.5625 22.289062 18.703125 22.289062 18.867188 Z M 22.289062 18.867188 " fill-opacity="1" fill-rule="nonzero"/><path fill="#ffffff" d="M 23.816406 17.921875 C 23.816406 18.085938 23.757812 18.222656 23.644531 18.339844 C 23.527344 18.453125 23.390625 18.511719 23.226562 18.511719 C 23.066406 18.511719 22.925781 18.453125 22.8125 18.339844 C 22.699219 18.222656 22.640625 18.085938 22.640625 17.921875 C 22.640625 17.757812 22.699219 17.621094 22.8125 17.503906 C 22.925781 17.390625 23.066406 17.332031 23.226562 17.332031 C 23.390625 17.332031 23.527344 17.390625 23.644531 17.503906 C 23.757812 17.621094 23.816406 17.757812 23.816406 17.921875 Z M 23.816406 17.921875 " fill-opacity="1" fill-rule="nonzero"/></svg>